<svg xmlns="http://www.w3.org/2000/svg" viewBox="0 0 100 100" width="512" height="512" role="img" aria-label="tixy.lol"><rect width="100" height="100" rx="22" fill="#1F1A16"></rect><g transform="translate(11 26.599999999999998) scale(0.65)"><path d="M12,4 H108 A8,8 0 0 1 116,12 V27 A9,9 0 0 0 116,45 V60 A8,8 0 0 1 108,68 H12 A8,8 0 0 1 4,60 V45 A9,9 0 0 0 4,27 V12 A8,8 0 0 1 12,4 Z" fill="#F2A33C"></path><path d="M88,13 V59" stroke="#1F1A16" stroke-width="3.5" stroke-dasharray="4.5 5.5" stroke-linecap="round"></path><circle cx="34" cy="31" r="5" fill="#1F1A16"></circle><circle cx="58" cy="31" r="5" fill="#1F1A16"></circle><path d="M29,43 Q46,56 63,43" fill="none" stroke="#1F1A16" stroke-width="5.5" stroke-linecap="round"></path></g></svg>
